<?xml version="1.0" standalone="no"?>
<!DOCTYPE svg PUBLIC "-//W3C//DTD SVG 20010904//EN"
 "http://www.w3.org/TR/2001/REC-SVG-20010904/DTD/svg10.dtd">
<svg version="1.0" xmlns="http://www.w3.org/2000/svg"
 width="300.000000pt" height="300.000000pt" viewBox="0 0 300.000000 300.000000"
 preserveAspectRatio="xMidYMid meet">
<metadata>
Created by potrace 1.10, written by Peter Selinger 2001-2011
</metadata>
<g transform="translate(0.000000,300.000000) scale(0.100000,-0.100000)"
fill="#000000" stroke="none">
<path d="M1995 2806 c-5 -11 -3 -21 5 -26 10 -6 8 -9 -6 -12 -17 -5 -18 -6 -2
-12 11 -5 23 -2 33 8 9 9 11 16 5 16 -6 0 -15 10 -19 23 -8 20 -10 21 -16 3z"/>
<path d="M1923 2738 c2 -13 -3 -28 -12 -35 -12 -9 -13 -12 -2 -13 7 0 11 -6 8
-15 -4 -8 -2 -17 3 -20 6 -4 10 1 10 10 0 9 3 14 8 12 12 -8 8 60 -5 72 -10 9
-12 7 -10 -11z"/>
<path d="M2064 2728 c3 -12 43 -14 55 -3 11 12 -12 18 -29 7 -12 -7 -20 -8
-24 -1 -2 5 -3 4 -2 -3z"/>
<path d="M2240 2699 c0 -17 4 -28 10 -24 6 3 10 17 10 31 0 13 -4 24 -10 24
-5 0 -10 -14 -10 -31z"/>
<path d="M1600 2588 c-195 -5 -413 -6 -485 -3 -201 8 -240 -9 -232 -98 2 -26
6 -49 8 -51 2 -2 132 -9 289 -16 294 -12 597 -5 843 22 l107 11 0 41 c0 87
-25 108 -124 104 -28 -1 -211 -5 -406 -10z m476 -39 c17 -14 18 -55 3 -65 -29
-18 -387 -39 -654 -39 -167 0 -469 13 -490 21 -23 9 -18 52 8 69 19 12 79 15
381 14 197 0 360 2 362 3 1 2 87 4 189 6 129 2 192 -1 201 -9z"/>
<path d="M2025 2419 c-231 -30 -707 -34 -1038 -9 -70 5 -133 7 -142 4 -9 -4
-15 -19 -15 -40 l0 -34 553 0 c305 0 609 3 675 7 l122 6 0 29 c0 46 -32 54
-155 37z m90 -39 c-8 -13 -35 -13 -55 0 -11 7 -5 10 23 10 23 0 36 -4 32 -10z"/>
<path d="M2161 2339 c-24 -10 -441 -17 -1048 -18 l-313 -1 0 -24 c0 -34 25
-39 128 -27 132 16 501 21 852 13 173 -4 340 -5 370 -2 54 5 55 6 58 38 4 34
-5 38 -47 21z"/>
<path d="M1229 2245 c-62 -17 -69 -22 -69 -52 0 -24 1 -25 18 -11 9 9 28 19
42 23 34 10 70 33 70 45 0 12 -2 12 -61 -5z"/>
<path d="M1391 2241 c-14 -14 -21 -34 -21 -60 0 -66 -7 -74 -41 -48 -33 24
-55 18 -76 -23 -21 -42 17 -81 58 -60 25 14 41 3 16 -11 -9 -6 -17 -16 -17
-23 0 -8 -8 -24 -18 -36 -15 -19 -22 -21 -39 -12 -49 27 -55 129 -10 175 33
32 34 47 4 47 -27 0 -71 -42 -86 -83 -6 -16 -11 -68 -11 -117 0 -49 -4 -92
-10 -95 -6 -4 -7 6 -4 25 4 17 2 30 -3 30 -6 0 -13 -17 -17 -38 -9 -59 -45
-106 -83 -110 -65 -6 -98 68 -91 201 4 60 2 77 -9 77 -7 0 -13 4 -13 10 0 6
17 7 43 4 90 -13 177 32 177 91 0 81 -118 86 -195 9 l-35 -35 0 43 c0 28 -3
38 -9 29 -7 -11 -13 -10 -34 3 -28 19 -46 6 -22 -14 9 -7 15 -29 15 -51 0 -25
7 -46 19 -58 14 -14 16 -22 7 -37 -6 -11 -11 -62 -11 -114 0 -82 4 -103 27
-152 29 -62 73 -98 120 -98 38 0 99 57 134 125 25 48 27 57 16 76 -11 17 -11
20 0 13 7 -5 15 -9 18 -10 3 0 19 -6 35 -13 45 -19 94 -4 123 39 20 29 23 45
20 98 -3 70 13 85 32 28 9 -28 8 -40 -4 -65 -11 -20 -12 -32 -5 -36 6 -4 13 2
16 14 8 31 23 15 23 -24 0 -25 -7 -39 -27 -55 l-28 -21 30 6 c37 8 25 -6 -18
-21 -40 -14 -44 -29 -13 -50 24 -15 28 -15 52 1 37 24 57 79 51 140 -2 27 -8
58 -11 67 -6 12 -2 17 16 20 29 4 30 32 1 36 -14 2 -27 -4 -35 -17 -17 -27
-32 -27 -18 0 9 15 8 31 -4 66 -9 26 -16 57 -16 71 0 33 24 23 28 -12 5 -40
27 -26 27 17 0 29 3 33 14 24 11 -9 13 -7 10 8 -6 30 -71 33 -98 6z m-293 -53
c9 -9 1 -17 -36 -35 -82 -40 -112 -22 -42 25 37 25 60 28 78 10z m209 -105 c3
-8 -4 -12 -20 -11 -16 1 -23 7 -20 16 7 16 35 12 40 -5z"/>
<path d="M1531 2235 c-17 -21 -20 -33 -15 -61 l7 -36 17 39 c9 21 24 44 33 52
9 7 14 17 11 22 -9 16 -30 10 -53 -16z"/>
<path d="M1762 2243 c-23 -19 -35 -85 -17 -92 6 -2 19 14 31 35 17 33 26 39
55 41 l34 2 -32 -10 c-21 -6 -34 -18 -42 -39 -5 -17 -15 -30 -20 -30 -6 0 -11
-5 -11 -11 0 -7 7 -8 18 -4 9 4 25 7 34 7 27 -1 59 47 56 82 -3 28 -6 31 -44
34 -28 2 -47 -3 -62 -15z"/>
<path d="M1950 2238 c-19 -13 -44 -43 -57 -68 -21 -39 -23 -55 -19 -121 4 -75
4 -76 -28 -101 -60 -48 -75 -52 -100 -29 -12 12 -29 21 -37 22 -8 0 8 7 35 14
84 23 126 88 92 140 -29 43 -109 24 -135 -32 -49 -102 -15 -204 67 -203 28 1
104 39 97 50 -3 5 0 7 8 4 8 -3 19 2 26 10 12 14 16 14 34 1 25 -18 99 -20
130 -4 50 26 97 71 97 92 0 21 -1 21 -20 -3 -26 -33 -25 -16 0 26 44 70 31
187 -17 158 -13 -8 -19 -28 -24 -80 -6 -74 -17 -104 -57 -146 -29 -32 -37 -33
-75 -15 -29 13 -36 27 -13 27 24 0 78 52 97 95 25 55 25 125 -2 159 -25 32
-55 33 -99 4z m74 -50 c9 -12 16 -34 15 -48 0 -22 -1 -23 -8 -5 -7 17 -8 17
-15 -8 -8 -32 -63 -97 -82 -97 -21 0 -19 98 2 130 36 54 64 63 88 28z m-208
-103 c-10 -7 -15 -19 -11 -25 4 -6 -9 -26 -29 -46 -37 -36 -62 -45 -52 -18 3
9 6 20 6 24 0 19 62 76 83 77 21 2 21 1 3 -12z"/>
<path d="M2127 2244 c-14 -14 -7 -35 11 -32 9 2 17 10 17 17 0 16 -18 25 -28
15z"/>
<path d="M1607 2229 c-30 -18 -45 -63 -53 -155 -6 -78 -10 -92 -33 -113 -27
-26 -14 -44 15 -20 13 11 14 9 8 -17 -11 -45 -29 -86 -58 -128 -29 -44 -23
-62 17 -52 35 8 56 46 76 137 17 79 17 80 35 60 15 -16 22 -18 33 -10 7 6 13
15 13 20 0 18 -34 39 -63 39 -24 0 -28 3 -19 12 7 7 12 38 12 69 0 91 30 138
67 108 20 -17 12 -53 -12 -56 -17 -2 -17 -1 -2 3 21 6 18 29 -4 29 -18 0 -25
-45 -7 -56 20 -13 27 -11 53 16 61 60 -4 157 -78 114z"/>
<path d="M1290 2215 c-9 -10 -10 -19 -3 -26 14 -14 45 0 41 19 -4 22 -23 25
-38 7z"/>
<path d="M1507 2124 c-14 -15 -6 -34 14 -34 14 0 19 5 17 17 -3 18 -20 27 -31
17z"/>
<path d="M1007 2040 c-36 -28 -44 -80 -22 -131 30 -65 57 -40 36 32 -15 49 -8
73 24 87 14 6 25 16 25 22 0 17 -36 11 -63 -10z"/>
<path d="M1060 2020 c-22 -17 -25 -26 -25 -84 0 -73 11 -83 44 -40 21 27 27
90 13 126 -6 16 -9 16 -32 -2z"/>
<path d="M1610 1898 c0 -15 -4 -38 -9 -51 -11 -29 -4 -42 16 -26 15 13 17 67
3 89 -8 12 -10 9 -10 -12z"/>
<path d="M2025 1883 c-160 -24 -170 -31 -163 -124 3 -43 4 -44 42 -47 24 -2
42 2 47 10 7 10 9 10 9 -2 0 -12 11 -14 49 -12 38 3 50 0 55 -13 11 -31 -12
-55 -52 -55 -65 0 -112 12 -112 27 0 8 -5 13 -12 11 -18 -6 -20 -22 -5 -42 10
-14 32 -19 99 -23 83 -6 86 -5 102 19 9 14 17 42 19 64 l2 39 -97 3 c-103 3
-110 7 -101 55 7 34 21 42 106 56 72 12 89 9 86 -17 -5 -51 16 -59 26 -9 4 17
9 39 11 48 7 25 -12 27 -111 12z"/>
<path d="M1240 1851 c0 -42 19 -71 45 -71 15 0 35 -5 47 -11 11 -6 22 -8 25
-6 8 8 -7 45 -25 64 -9 9 -17 21 -17 27 0 6 -17 12 -37 14 -32 3 -38 0 -38
-17z"/>
<path d="M1191 1823 c-15 -51 -14 -65 5 -92 16 -22 22 -23 78 -17 65 7 91 21
66 36 -23 15 -43 12 -36 -5 7 -20 4 -19 -24 5 -13 11 -29 20 -37 20 -9 0 -13
14 -13 45 0 57 -24 62 -39 8z"/>
<path d="M2025 1838 c-56 -10 -80 -17 -74 -22 2 -2 35 2 74 8 38 7 65 14 60
17 -6 3 -32 2 -60 -3z"/>
<path d="M1715 1825 c-74 -16 -135 -40 -135 -54 0 -14 9 -14 49 0 22 8 36 8
43 1 12 -12 40 -152 34 -168 -2 -6 -23 -14 -45 -18 -27 -4 -41 -11 -41 -21 0
-11 7 -14 23 -11 12 3 44 7 71 10 27 3 56 12 65 21 10 8 32 18 49 21 19 4 32
13 32 21 0 11 -7 14 -22 10 -13 -3 -35 -9 -49 -12 -26 -6 -28 -4 -38 45 -6 28
-11 60 -11 70 0 11 -4 20 -9 20 -5 0 -7 9 -4 19 5 20 30 31 76 31 17 0 27 5
27 15 0 18 -32 18 -115 0z"/>
<path d="M1927 1803 c-4 -3 -7 -17 -7 -30 0 -22 2 -23 91 -23 57 0 88 4 84 10
-3 6 -42 10 -86 10 -76 0 -80 1 -74 20 6 20 4 25 -8 13z"/>
<path d="M1775 1790 c-28 -7 -28 -8 12 -9 23 0 45 4 48 9 7 11 -16 11 -60 0z"/>
<path d="M1757 1735 c13 -84 17 -90 53 -87 35 3 47 8 38 17 -3 3 -17 1 -31 -4
-25 -10 -27 -8 -37 32 -16 64 -31 91 -23 42z"/>
<path d="M1480 1707 c-31 -16 -50 -52 -50 -96 l0 -35 28 32 c16 18 32 29 35
26 3 -4 21 6 38 21 30 25 42 27 88 14 27 -8 21 20 -8 35 -36 19 -97 20 -131 3z"/>
<path d="M1035 1690 c-41 -18 -87 -62 -98 -92 -7 -21 16 -53 32 -44 6 4 18 24
26 44 8 20 34 54 58 74 46 42 42 46 -18 18z"/>
<path d="M924 1685 c-4 -9 -2 -21 3 -26 14 -14 45 1 41 20 -4 22 -37 26 -44 6z"/>
<path d="M1281 1686 c-17 -20 -10 -67 12 -80 15 -9 21 -6 37 14 16 20 20 22
20 8 0 -10 -4 -18 -10 -18 -5 0 -10 -15 -10 -33 0 -33 -35 -95 -110 -191 -16
-21 -30 -51 -30 -66 0 -26 26 -60 46 -60 6 0 54 -29 108 -65 83 -55 104 -65
142 -65 62 0 104 41 70 69 -10 9 -21 7 -43 -5 -32 -19 -23 -21 -125 32 -14 8
-29 22 -32 30 -4 9 -13 14 -21 10 -8 -3 -15 -1 -15 4 0 6 -16 18 -35 27 -19 9
-35 23 -35 31 0 8 21 37 46 65 25 28 57 74 71 102 28 53 37 135 16 142 -7 2
-10 10 -7 18 7 16 -33 45 -62 45 -12 0 -27 -6 -33 -14z"/>
<path d="M1082 1656 c-67 -61 -137 -221 -110 -253 17 -20 35 1 49 58 7 27 15
49 19 49 14 0 92 -89 86 -99 -4 -6 0 -11 11 -12 14 0 15 -2 3 -6 -24 -9 -40
-35 -40 -65 0 -58 53 -45 64 15 3 19 22 58 40 87 25 39 31 57 23 62 -11 7 -2
12 16 9 14 -2 7 91 -9 125 -35 73 -92 84 -152 30z m97 -42 c25 -32 26 -62 6
-110 -13 -32 -16 -34 -33 -22 -45 32 -82 68 -82 79 0 17 60 79 76 79 7 0 22
-12 33 -26z"/>
<path d="M1943 1663 c20 -2 54 -2 75 0 20 2 3 4 -38 4 -41 0 -58 -2 -37 -4z"/>
<path d="M1538 1635 c-15 -14 -34 -25 -42 -25 -8 0 -24 -10 -35 -22 -25 -26
-12 -48 29 -48 31 0 130 81 130 106 0 23 -53 16 -82 -11z"/>
<path d="M1924 1586 c-15 -12 -19 -27 -19 -82 0 -88 -20 -98 -30 -14 -7 63
-24 90 -55 90 -28 0 -32 -15 -9 -41 12 -14 18 -31 15 -44 -7 -27 12 -95 27
-101 17 -6 9 -80 -9 -95 -22 -18 -17 -39 10 -39 38 0 56 25 56 77 0 34 6 53
26 76 23 27 25 38 21 81 -2 28 -10 52 -16 54 -14 5 -15 32 -1 32 6 0 10 -7 10
-15 0 -20 39 -19 47 1 12 31 -39 45 -73 20z"/>
<path d="M2020 1552 c-29 -30 -53 -93 -43 -118 3 -8 18 -14 34 -14 l30 0 -16
-30 c-18 -35 -22 -36 -46 -14 -22 20 -49 12 -49 -14 0 -24 31 -52 56 -52 38 1
94 64 94 107 0 29 -27 55 -51 48 -10 -4 -19 -3 -19 0 0 15 25 52 48 71 14 12
22 26 18 32 -11 19 -25 14 -56 -16z"/>
<path d="M1535 1526 c-28 -28 -29 -35 -14 -120 13 -71 1 -120 -29 -114 -14 3
-16 13 -14 55 2 32 -1 54 -9 59 -15 9 -49 -30 -49 -57 0 -24 -29 -37 -41 -18
-12 20 -2 47 38 99 40 53 41 84 1 88 -25 3 -28 0 -28 -26 0 -16 -7 -35 -16
-43 -41 -34 -57 -117 -30 -154 8 -12 26 -18 47 -18 22 0 39 -7 47 -19 14 -20
62 -24 92 -8 10 5 26 30 36 55 15 40 16 54 5 115 -11 57 -10 72 1 83 7 7 18
14 23 15 19 4 10 27 -12 30 -14 2 -32 -6 -48 -22z"/>
<path d="M1672 1539 c-12 -5 -25 -17 -29 -26 -4 -10 -10 -21 -15 -24 -12 -8
-30 -156 -26 -224 3 -52 6 -60 23 -60 18 0 20 6 17 57 -3 56 -2 58 25 64 15 3
35 8 44 10 12 3 18 -4 22 -30 3 -18 14 -52 25 -75 l20 -41 -23 6 c-28 7 -102
-24 -129 -55 -13 -14 -21 -43 -25 -89 -6 -66 -7 -66 -13 -24 -11 72 -29 85
-120 80 -69 -3 -81 -6 -105 -31 -26 -26 -28 -33 -27 -110 1 -149 48 -248 111
-232 43 10 131 64 137 83 3 9 10 47 15 83 10 69 25 109 41 109 19 0 10 -39
-11 -54 -18 -12 -21 -21 -16 -52 9 -56 34 -77 83 -70 64 8 92 23 114 58 18 29
20 46 18 144 -2 92 -6 116 -21 132 -18 20 -18 21 10 24 35 4 48 48 14 48 -29
0 -38 22 -60 148 -10 60 -24 119 -30 130 -13 24 -39 32 -69 21z m41 -91 c9
-35 13 -66 9 -69 -4 -4 -22 -9 -41 -13 l-33 -6 4 59 c4 54 19 91 38 91 4 0 15
-28 23 -62z m30 -325 c7 -72 3 -240 -6 -249 -15 -15 -37 22 -48 80 -18 97 5
216 42 216 4 0 9 -21 12 -47z m35 13 c9 -20 8 -27 -5 -38 -14 -11 -16 -10 -11
15 3 15 1 27 -3 27 -5 0 -9 5 -9 10 0 19 17 10 28 -14z m-134 -58 c-4 -13 -7
-30 -6 -39 2 -9 -4 -22 -13 -29 -12 -10 -15 -10 -15 2 0 8 5 19 12 26 9 9 9
12 0 12 -17 0 -15 20 5 42 20 22 27 17 17 -14z m-101 4 c-2 -7 3 -12 11 -12
17 0 43 -123 27 -128 -6 -2 -11 -8 -11 -13 0 -6 5 -7 10 -4 19 11 10 -33 -11
-56 l-20 -24 7 30 c4 17 6 41 5 54 0 13 5 31 11 39 8 10 9 13 2 9 -17 -10 -27
23 -13 39 9 11 9 14 0 14 -6 0 -14 8 -18 18 -3 9 -13 25 -22 36 -15 17 -15 18
4 14 11 -2 19 -10 18 -16z m233 -30 c-15 -15 -16 -15 -16 4 0 28 24 52 28 28
2 -9 -3 -24 -12 -32z m-372 -13 c-9 -10 -12 -19 -6 -19 15 0 9 -87 -6 -102 -9
-9 -12 -7 -12 8 0 11 5 25 12 32 9 9 8 12 -5 12 -13 0 -15 5 -7 24 5 13 6 27
3 30 -3 3 2 18 12 33 12 17 20 23 23 15 2 -7 -4 -22 -14 -33z m93 11 c8 -15
13 -64 13 -123 0 -137 -22 -175 -55 -94 -11 26 -20 80 -23 145 l-5 104 29 -4
c18 -2 33 -12 41 -28z m281 -51 c-18 -12 -23 17 -6 38 12 15 13 14 16 -7 2
-12 -2 -27 -10 -31z m10 -31 c0 -13 0 -27 2 -33 4 -19 -12 -55 -26 -55 -14 0
-10 24 9 48 6 8 6 12 -2 12 -12 0 -15 32 -4 43 13 14 23 7 21 -15z m-124 -100
c-11 -18 -26 -7 -22 16 4 17 1 23 -9 19 -16 -6 -17 19 -1 35 9 9 15 3 24 -25
7 -20 11 -40 8 -45z m-258 4 c-14 -14 -16 -14 -22 2 -4 10 1 25 12 38 l19 20
3 -22 c2 -12 -3 -30 -12 -38z m24 -16 c0 -8 -4 -18 -10 -21 -5 -3 -10 -11 -10
-17 0 -7 5 -6 14 1 17 15 29 0 19 -25 -4 -11 -3 -15 5 -10 6 3 14 2 17 -4 4
-7 -3 -10 -20 -7 -35 4 -60 50 -42 78 14 22 27 25 27 5z m140 -35 c-6 -12 -15
-21 -20 -21 -10 0 -3 28 14 49 15 19 20 -3 6 -28z"/>
<path d="M1764 1536 c-9 -24 3 -46 26 -46 26 0 26 22 0 45 -18 16 -20 16 -26
1z"/>
<path d="M1058 1413 c-37 -43 -52 -88 -53 -158 0 -86 21 -127 78 -150 74 -30
127 3 127 76 0 29 -7 43 -31 63 -17 14 -42 26 -55 26 -34 0 -49 41 -36 100 14
61 1 79 -30 43z m7 -163 c-3 -6 -10 -10 -16 -10 -10 0 -12 33 -2 44 9 9 26
-22 18 -34z m78 -30 c8 -11 17 -17 20 -13 4 3 7 1 7 -5 0 -16 -16 -15 -34 3
-20 21 -43 19 -56 -4 -10 -20 -4 -51 10 -51 5 0 12 9 15 20 3 11 13 20 22 20
12 0 14 -6 8 -27 l-6 -27 23 19 c13 11 26 24 30 30 4 5 10 6 14 2 4 -4 -3 -18
-16 -32 -46 -49 -138 -22 -123 36 6 21 40 49 60 49 6 0 18 -9 26 -20z"/>
<path d="M740 1367 c0 -11 9 -15 30 -15 34 1 53 18 21 18 -10 0 -26 3 -35 6
-10 4 -16 1 -16 -9z"/>
<path d="M1908 1263 c-23 -25 -26 -39 -32 -138 -4 -60 -13 -141 -20 -180 -10
-52 -11 -72 -2 -78 17 -11 56 -20 62 -14 3 3 12 65 21 139 8 73 18 144 21 158
5 21 7 19 10 -15 8 -84 -33 -325 -58 -340 -5 -3 -27 3 -49 15 -22 11 -47 20
-56 20 -24 0 -87 -35 -112 -62 -20 -21 -47 -77 -41 -84 2 -1 32 4 68 11 49 10
70 20 87 41 l22 28 30 -22 c37 -27 82 -28 105 -3 10 11 24 43 31 73 22 84 56
346 49 376 -8 32 -39 69 -76 88 -34 18 -30 19 -60 -13z m20 -37 c0 -21 -7 -41
-19 -52 -16 -15 -19 -15 -19 -2 0 9 7 21 15 28 12 10 13 15 4 21 -7 4 -9 14
-6 23 11 28 25 17 25 -18z m70 -29 c14 -23 15 -30 4 -48 -10 -15 -10 -19 -1
-14 9 6 10 -6 4 -51 -8 -65 -11 -74 -27 -74 -6 0 -8 9 -4 23 4 12 8 52 9 88 2
50 -1 65 -10 62 -9 -3 -13 4 -13 22 0 32 16 29 38 -8z m-90 -78 c-18 -12 -23
17 -6 38 12 15 13 14 16 -7 2 -12 -2 -27 -10 -31z m7 -47 c-4 -9 -8 -28 -9
-41 0 -13 -7 -26 -13 -28 -16 -6 -17 19 -1 35 9 9 9 12 0 12 -12 0 -6 26 12
49 13 17 21 -2 11 -27z m-21 -130 c-4 -9 -7 -29 -7 -44 0 -18 -4 -25 -13 -21
-16 6 -18 19 -5 27 4 3 6 17 3 31 -2 14 2 33 9 42 13 15 14 15 17 -1 2 -9 0
-25 -4 -34z m86 -65 c0 -8 -3 -17 -7 -21 -5 -4 -8 -11 -8 -14 -2 -22 -18 -51
-30 -56 -12 -4 -12 -1 -3 19 6 14 16 25 22 25 8 0 8 3 0 8 -7 4 -8 15 -3 30 9
24 29 30 29 9z m-95 -121 c11 -7 27 -16 35 -19 8 -2 2 -3 -15 0 -16 2 -36 10
-45 18 -18 19 -1 20 25 1z m-95 -25 c0 -5 -16 -12 -36 -15 -19 -4 -43 -10 -52
-13 -12 -4 -14 -3 -7 5 6 6 28 16 50 21 22 5 41 9 43 10 1 1 2 -3 2 -8z"/>
<path d="M1226 1231 c-3 -4 0 -22 7 -40 10 -27 9 -37 -8 -69 -17 -31 -30 -40
-82 -57 -88 -29 -103 -46 -103 -114 0 -76 35 -239 56 -262 25 -27 39 -24 88
21 24 22 45 40 48 40 2 0 2 -14 0 -31 -3 -22 -1 -30 7 -25 6 4 11 1 11 -8 0
-22 16 -20 40 6 18 19 20 35 20 140 0 65 -4 118 -9 118 -5 0 -32 -5 -60 -12
-53 -12 -71 -38 -26 -38 19 0 25 -5 25 -23 0 -28 -41 -112 -55 -112 -13 0 -22
52 -31 163 -7 91 -7 92 -27 75 -19 -17 -19 -17 -16 2 3 13 13 21 29 23 21 2
26 -2 27 -20 4 -49 49 -56 106 -16 21 15 27 27 27 57 0 21 -3 41 -7 45 -4 4
-6 24 -5 44 4 54 -43 124 -62 93z m52 -85 c1 -19 -3 -38 -8 -41 -6 -4 -4 -12
5 -21 18 -18 15 -76 -4 -82 -9 -3 -11 0 -6 9 10 15 13 58 5 57 -27 -2 -30 3
-16 36 7 18 11 46 8 61 -3 17 -1 26 5 22 5 -3 10 -22 11 -41z m-54 -102 c23
-9 20 -44 -3 -44 -23 0 -35 15 -27 35 6 17 8 17 30 9z m-96 -141 c-7 -9 -8
-14 -2 -10 18 10 27 -25 11 -41 -12 -12 -15 -7 -21 33 -5 32 -3 51 6 62 12 15
13 14 16 -6 2 -12 -2 -29 -10 -38z m168 -55 c-1 -51 -5 -99 -10 -107 -7 -10
-6 -12 3 -6 9 5 12 2 9 -10 -1 -10 -7 -20 -13 -22 -14 -4 -17 58 -4 74 8 9 8
13 0 13 -7 0 -10 13 -7 38 3 20 5 54 5 75 1 20 5 37 9 37 4 0 8 -42 8 -92z
m-138 -119 c-18 -11 -23 -2 -8 16 11 13 10 14 -4 9 -19 -7 -22 16 -3 35 8 10
8 12 0 7 -18 -10 -27 13 -12 31 12 13 15 8 27 -37 11 -43 11 -55 0 -61z"/>
<path d="M1034 1085 c-7 -18 3 -35 21 -35 18 0 26 25 12 39 -15 15 -27 14 -33
-4z"/>
<path d="M890 1014 c0 -7 5 -16 10 -19 6 -3 10 -1 10 4 0 6 9 11 19 11 11 0
23 4 26 10 3 5 -9 9 -30 8 -21 -1 -35 -6 -35 -14z"/>
<path d="M1326 742 c-5 -8 13 -67 27 -89 5 -8 -5 -19 -30 -32 -38 -19 -73 -65
-73 -95 0 -24 -37 -57 -56 -49 -16 6 -16 14 2 100 5 25 2 33 -15 42 -25 14
-55 1 -71 -29 -15 -27 -12 -105 4 -145 18 -42 50 -46 103 -14 l34 21 15 -21
c18 -25 32 -26 78 -4 33 15 37 15 54 0 24 -22 70 -22 94 0 14 13 21 14 30 5 7
-7 34 -12 60 -12 40 0 53 5 74 27 l25 27 25 -32 c30 -38 50 -40 97 -8 30 21
38 22 48 10 17 -21 47 -17 63 9 14 21 43 243 33 253 -2 3 -17 0 -32 -6 -15 -6
-36 -8 -46 -5 -24 8 -88 -12 -118 -37 -21 -16 -22 -21 -10 -29 11 -8 10 -9 -5
-7 -13 2 -28 -14 -55 -61 -41 -73 -84 -112 -103 -93 -9 9 -6 18 16 41 15 16
28 35 30 42 1 8 7 24 14 36 26 46 2 134 -41 154 -50 23 -148 -59 -134 -111 3
-13 1 -18 -5 -13 -8 4 -9 -12 -3 -53 12 -96 12 -99 -10 -99 -24 0 -33 29 -34
116 -1 88 -9 123 -33 148 -19 22 -43 27 -52 13z m268 -93 c7 -28 4 -45 -12
-82 -24 -53 -38 -59 -52 -21 -14 37 -12 81 6 115 20 40 46 35 58 -12z m279
-11 c24 -38 -58 -147 -99 -131 -9 3 -14 20 -14 45 0 32 7 47 35 75 36 36 61
40 78 11z m-508 -105 c7 -40 -10 -63 -48 -63 -17 0 -19 5 -13 32 6 31 32 68
46 68 4 0 11 -17 15 -37z m383 -36 c12 -13 18 -27 14 -35 -11 -17 -52 13 -52
39 0 25 12 24 38 -4z m142 3 c0 -19 -20 -27 -33 -13 -8 7 11 33 24 33 5 0 9
-9 9 -20z"/>
<path d="M1164 665 c-8 -20 4 -35 26 -35 23 0 32 13 24 34 -8 20 -43 21 -50 1z"/>
<path d="M1606 391 c-7 -11 39 -20 54 -11 8 5 6 9 -5 14 -23 9 -43 8 -49 -3z"/>
<path d="M1549 383 c-1 -5 -1 -12 0 -16 1 -4 -6 -10 -14 -13 -19 -8 -20 -44
-1 -44 8 0 18 18 24 40 5 23 6 40 1 40 -5 0 -10 -3 -10 -7z"/>
<path d="M1396 365 c-10 -26 -7 -35 9 -35 17 0 19 18 6 38 -7 11 -10 10 -15
-3z"/>
<path d="M1737 374 c-12 -12 -8 -26 7 -21 7 3 18 1 23 -4 6 -6 14 -4 23 6 10
12 10 15 -3 15 -8 0 -22 2 -29 5 -8 3 -17 2 -21 -1z"/>
<path d="M1108 353 c-10 -2 -18 -9 -18 -14 0 -15 53 -6 58 9 4 12 -8 14 -40 5z"/>
<path d="M1561 264 c0 -7 -11 -15 -23 -19 l-23 -8 23 -4 c29 -6 35 0 29 24 -3
10 -5 13 -6 7z"/>
</g>
</svg>
